<?xml version="1.0" standalone="no"?>
<!DOCTYPE svg PUBLIC "-//W3C//DTD SVG 20010904//EN"
 "http://www.w3.org/TR/2001/REC-SVG-20010904/DTD/svg10.dtd">
<svg version="1.0" xmlns="http://www.w3.org/2000/svg"
 width="512.000000pt" height="512.000000pt" viewBox="0 0 512.000000 512.000000"
 preserveAspectRatio="xMidYMid meet">
<metadata>
Created by potrace 1.11, written by Peter Selinger 2001-2013
</metadata>
<g transform="translate(0.000000,512.000000) scale(0.100000,-0.100000)"
fill="#000000" stroke="none">
<path d="M3790 5104 c-36 -7 -103 -32 -149 -55 -203 -100 -437 -406 -535 -700
-69 -206 -85 -319 -95 -664 -6 -224 -11 -277 -25 -312 -23 -55 -111 -135 -165
-152 -26 -7 -154 -16 -329 -22 -158 -5 -323 -15 -367 -23 -320 -56 -578 -186
-812 -410 -240 -229 -392 -500 -451 -807 -32 -163 -33 -178 -41 -464 -9 -309
-10 -312 -93 -405 -69 -75 -123 -167 -151 -255 -30 -94 -31 -292 -3 -375 37
-109 88 -192 166 -271 248 -249 638 -251 897 -6 180 171 318 394 392 633 53
172 71 309 80 614 9 319 12 332 96 409 37 33 68 52 102 60 27 7 172 16 328 21
327 10 433 26 630 93 414 142 800 530 939 947 69 207 85 320 95 665 9 308 9
312 93 405 69 75 123 167 151 255 30 94 31 292 3 375 -59 175 -177 315 -326
389 -139 68 -284 87 -430 55z m282 -316 c71 -33 133 -94 167 -167 22 -48 26
-69 26 -146 0 -112 -16 -150 -110 -260 -88 -102 -124 -180 -144 -306 l-15 -99
-342 0 -343 0 5 58 c29 353 112 557 322 800 63 73 111 108 185 134 72 26 174
20 249 -14z m-78 -1286 c7 -12 -13 -206 -30 -288 -50 -242 -165 -449 -353
-634 -201 -197 -446 -315 -726 -349 -49 -6 -109 -11 -132 -11 l-43 0 0 345 0
345 48 0 c71 0 199 36 260 73 84 50 187 160 228 242 32 66 63 188 64 258 l0
27 339 0 c187 0 342 -4 345 -8z m-1584 -947 l0 -345 -48 0 c-71 0 -199 -36
-260 -73 -30 -17 -85 -63 -122 -100 -102 -102 -150 -207 -166 -359 l-6 -68
-339 0 c-186 0 -340 4 -343 8 -10 17 16 233 40 331 73 293 245 542 499 723
142 101 343 183 505 207 41 6 86 13 100 15 14 2 51 4 83 5 l57 1 0 -345z
m-606 -1302 c-25 -305 -92 -500 -239 -698 -92 -124 -151 -182 -223 -217 -59
-29 -76 -33 -152 -33 -71 0 -94 4 -140 26 -72 34 -136 97 -168 167 -23 49 -27
70 -27 147 0 112 16 150 110 260 88 103 124 180 144 306 l15 99 342 0 343 0
-5 -57z"/>
</g>
</svg>
